<svg xmlns="http://www.w3.org/2000/svg" xmlns:xlink="http://www.w3.org/1999/xlink" width="500" zoomAndPan="magnify" viewBox="0 0 375 374.999991" height="500" preserveAspectRatio="xMidYMid meet" version="1.0"><defs><clipPath id="8bff4d34a5"><path d="M 363 214 L 375 214 L 375 309.128906 L 363 309.128906 Z M 363 214 " clip-rule="nonzero"/></clipPath><clipPath id="3e825eb8f5"><path d="M 0 123.878906 L 12 123.878906 L 12 219 L 0 219 Z M 0 123.878906 " clip-rule="nonzero"/></clipPath></defs><path fill="#003366" d="M 49.355469 167.910156 C 46.804688 167.910156 44.609375 168.859375 42.765625 170.746094 C 40.925781 172.636719 40.003906 174.910156 40.003906 177.5625 C 40.003906 180.265625 40.925781 182.5625 42.765625 184.453125 C 44.609375 186.34375 46.804688 187.285156 49.355469 187.285156 C 50.582031 187.285156 51.746094 187.136719 52.84375 186.832031 C 53.9375 186.519531 54.742188 186.214844 55.253906 185.910156 L 55.945312 185.453125 L 60.539062 194.867188 C 60.179688 195.125 59.679688 195.445312 59.039062 195.832031 C 58.402344 196.21875 56.949219 196.742188 54.671875 197.402344 C 52.402344 198.066406 49.964844 198.394531 47.359375 198.394531 C 41.59375 198.394531 36.523438 196.367188 32.152344 192.3125 C 27.789062 188.253906 25.605469 183.386719 25.605469 177.71875 C 25.605469 171.996094 27.789062 167.078125 32.152344 162.964844 C 36.523438 158.855469 41.59375 156.800781 47.359375 156.800781 C 49.964844 156.800781 52.367188 157.109375 54.558594 157.722656 C 56.757812 158.335938 58.316406 158.949219 59.234375 159.5625 L 60.539062 160.484375 L 55.945312 169.753906 C 54.253906 168.527344 52.058594 167.910156 49.355469 167.910156 Z M 49.355469 167.910156 " fill-opacity="1" fill-rule="nonzero"/><path fill="#003366" d="M 99.285156 179.476562 L 70.796875 179.476562 C 70.796875 182.234375 71.6875 184.28125 73.472656 185.609375 C 75.257812 186.933594 77.199219 187.597656 79.296875 187.597656 C 81.492188 187.597656 83.222656 187.304688 84.5 186.71875 C 85.777344 186.132812 87.230469 184.96875 88.867188 183.230469 L 98.671875 188.132812 C 94.589844 194.976562 87.800781 198.394531 78.304688 198.394531 C 72.378906 198.394531 67.296875 196.367188 63.058594 192.3125 C 58.816406 188.253906 56.695312 183.363281 56.695312 177.644531 C 56.695312 171.921875 58.816406 167.019531 63.058594 162.933594 C 67.296875 158.847656 72.378906 156.800781 78.304688 156.800781 C 84.53125 156.800781 89.597656 158.601562 93.5 162.199219 C 97.410156 165.800781 99.367188 170.945312 99.367188 177.632812 C 99.367188 178.558594 99.335938 179.171875 99.285156 179.476562 Z M 71.175781 171.964844 L 86.113281 171.964844 C 85.804688 169.925781 84.996094 168.355469 83.695312 167.257812 C 82.394531 166.164062 80.726562 165.613281 78.6875 165.613281 C 76.4375 165.613281 74.648438 166.203125 73.320312 167.375 C 71.996094 168.546875 71.28125 170.078125 71.175781 171.964844 Z M 71.175781 171.964844 " fill-opacity="1" fill-rule="nonzero"/><path fill="#003366" d="M 139.644531 162.820312 C 143.320312 166.828125 145.15625 171.742188 145.15625 177.5625 C 145.15625 183.382812 143.320312 188.308594 139.644531 192.34375 C 135.964844 196.378906 131.296875 198.394531 125.628906 198.394531 C 120.417969 198.394531 116.132812 196.761719 112.757812 193.492188 L 112.757812 217.160156 L 99.195312 217.160156 L 99.195312 157.949219 L 112.601562 157.949219 L 112.601562 162.398438 L 112.757812 162.398438 C 116.132812 158.667969 120.417969 156.800781 125.628906 156.800781 C 131.296875 156.800781 135.964844 158.808594 139.644531 162.820312 Z M 128.109375 184.222656 C 129.875 182.484375 130.757812 180.265625 130.757812 177.5625 C 130.757812 174.851562 129.914062 172.644531 128.222656 170.929688 C 126.539062 169.222656 124.324219 168.367188 121.570312 168.367188 C 118.910156 168.367188 116.722656 169.234375 115.015625 170.972656 C 113.300781 172.710938 112.449219 174.910156 112.449219 177.5625 C 112.449219 180.265625 113.328125 182.484375 115.085938 184.222656 C 116.851562 185.960938 119.011719 186.832031 121.570312 186.832031 C 124.171875 186.832031 126.351562 185.960938 128.109375 184.222656 Z M 128.109375 184.222656 " fill-opacity="1" fill-rule="nonzero"/><g clip-path="url(#8bff4d34a5)"><path stroke-linecap="butt" transform="matrix(0, -0.496528, 0.496528, 0, 363.285509, 307.947988)" fill="none" stroke-linejoin="miter" d="M -0.00247916 11.005409 L 178.117283 11.005409 " stroke="#003366" stroke-width="22" stroke-opacity="1" stroke-miterlimit="4"/></g><path fill="#003366" d="M 11.972656 277.808594 C 8.296875 273.796875 6.460938 268.878906 6.460938 263.058594 C 6.460938 257.238281 8.296875 252.3125 11.972656 248.277344 C 15.65625 244.242188 20.332031 242.226562 26 242.226562 C 31.207031 242.226562 35.496094 243.859375 38.867188 247.128906 L 38.867188 216.796875 L 52.417969 216.796875 L 52.417969 282.671875 L 39.011719 282.671875 L 39.011719 278.234375 L 38.867188 278.234375 C 35.496094 281.957031 31.207031 283.820312 26 283.820312 C 20.332031 283.820312 15.65625 281.816406 11.972656 277.808594 Z M 23.496094 256.398438 C 21.738281 258.132812 20.859375 260.359375 20.859375 263.070312 C 20.859375 265.773438 21.699219 267.980469 23.382812 269.6875 C 25.070312 271.402344 27.296875 272.253906 30.054688 272.253906 C 32.707031 272.253906 34.890625 271.386719 36.601562 269.648438 C 38.3125 267.910156 39.167969 265.714844 39.167969 263.058594 C 39.167969 260.355469 38.285156 258.132812 36.519531 256.398438 C 34.761719 254.660156 32.605469 253.789062 30.054688 253.789062 C 27.449219 253.789062 25.261719 254.660156 23.496094 256.398438 Z M 23.496094 256.398438 " fill-opacity="1" fill-rule="nonzero"/><path fill="#003366" d="M 58.800781 278.007812 C 54.4375 274.125 52.253906 269.144531 52.253906 263.070312 C 52.253906 256.988281 54.523438 251.996094 59.070312 248.089844 C 63.613281 244.179688 69.230469 242.226562 75.921875 242.226562 C 82.511719 242.226562 88.066406 244.195312 92.585938 248.132812 C 97.101562 252.0625 99.363281 257.042969 99.363281 263.070312 C 99.363281 269.089844 97.148438 274.054688 92.730469 277.964844 C 88.316406 281.871094 82.710938 283.820312 75.921875 283.820312 C 68.878906 283.820312 63.171875 281.882812 58.800781 278.007812 Z M 69.289062 256.398438 C 67.53125 258.132812 66.652344 260.359375 66.652344 263.070312 C 66.652344 265.773438 67.492188 267.980469 69.175781 269.6875 C 70.867188 271.402344 73.089844 272.253906 75.847656 272.253906 C 78.503906 272.253906 80.683594 271.386719 82.398438 269.648438 C 84.105469 267.910156 84.960938 265.714844 84.960938 263.058594 C 84.960938 260.355469 84.078125 258.132812 82.3125 256.398438 C 80.554688 254.660156 78.398438 253.789062 75.847656 253.789062 C 73.242188 253.789062 71.054688 254.660156 69.289062 256.398438 Z M 69.289062 256.398438 " fill-opacity="1" fill-rule="nonzero"/><path fill="#003366" d="M 144.089844 243.375 L 125.398438 262.136719 L 145.921875 282.671875 L 128.460938 282.671875 L 112.757812 266.96875 L 112.757812 282.671875 L 99.195312 282.671875 L 99.195312 216.796875 L 112.757812 216.796875 L 112.757812 257.089844 L 126.464844 243.375 Z M 144.089844 243.375 " fill-opacity="1" fill-rule="nonzero"/><path fill="#003366" d="M 144.453125 243.375 L 144.453125 228.746094 L 158.015625 228.746094 L 158.015625 243.375 L 166.289062 243.375 L 166.289062 253.71875 L 158.015625 253.71875 L 158.015625 266.203125 C 158.015625 269.832031 159.035156 271.644531 161.078125 271.644531 C 161.585938 271.644531 162.121094 271.539062 162.679688 271.335938 C 163.246094 271.128906 163.683594 270.925781 163.996094 270.722656 L 164.449219 270.414062 L 167.820312 281.367188 C 164.910156 283.003906 161.589844 283.820312 157.859375 283.820312 C 155.308594 283.820312 153.113281 283.375 151.269531 282.484375 C 149.433594 281.589844 148.046875 280.390625 147.101562 278.886719 C 146.15625 277.375 145.476562 275.792969 145.0625 274.136719 C 144.65625 272.476562 144.453125 270.699219 144.453125 268.808594 L 144.453125 253.71875 L 138.785156 253.71875 L 138.785156 243.375 Z M 144.453125 243.375 " fill-opacity="1" fill-rule="nonzero"/><path fill="#003366" d="M 169.609375 278.007812 C 165.242188 274.125 163.0625 269.144531 163.0625 263.070312 C 163.0625 256.988281 165.332031 251.996094 169.878906 248.089844 C 174.421875 244.179688 180.039062 242.226562 186.730469 242.226562 C 193.320312 242.226562 198.875 244.195312 203.394531 248.132812 C 207.910156 252.0625 210.167969 257.042969 210.167969 263.070312 C 210.167969 269.089844 207.957031 274.054688 203.539062 277.964844 C 199.125 281.871094 193.519531 283.820312 186.730469 283.820312 C 179.6875 283.820312 173.980469 281.882812 169.609375 278.007812 Z M 180.097656 256.398438 C 178.339844 258.132812 177.460938 260.359375 177.460938 263.070312 C 177.460938 265.773438 178.300781 267.980469 179.984375 269.6875 C 181.671875 271.402344 183.898438 272.253906 186.65625 272.253906 C 189.308594 272.253906 191.492188 271.386719 193.203125 269.648438 C 194.914062 267.910156 195.769531 265.714844 195.769531 263.058594 C 195.769531 260.355469 194.886719 258.132812 193.121094 256.398438 C 191.363281 254.660156 189.207031 253.789062 186.65625 253.789062 C 184.050781 253.789062 181.863281 254.660156 180.097656 256.398438 Z M 180.097656 256.398438 " fill-opacity="1" fill-rule="nonzero"/><path fill="#003366" d="M 210.003906 282.671875 L 210.003906 243.375 L 223.566406 243.375 L 223.566406 249.042969 L 223.722656 249.042969 C 223.824219 248.84375 223.992188 248.59375 224.21875 248.285156 C 224.445312 247.976562 224.941406 247.4375 225.707031 246.671875 C 226.472656 245.90625 227.289062 245.21875 228.160156 244.605469 C 229.027344 243.992188 230.152344 243.441406 231.53125 242.960938 C 232.910156 242.472656 234.3125 242.226562 235.742188 242.226562 C 237.222656 242.226562 238.679688 242.433594 240.105469 242.847656 C 241.539062 243.253906 242.589844 243.660156 243.25 244.066406 L 244.328125 244.675781 L 238.660156 256.167969 C 236.96875 254.742188 234.621094 254.027344 231.613281 254.027344 C 229.980469 254.027344 228.574219 254.386719 227.394531 255.105469 C 226.21875 255.816406 225.390625 256.679688 224.902344 257.699219 C 224.417969 258.722656 224.074219 259.589844 223.867188 260.308594 C 223.664062 261.019531 223.566406 261.578125 223.566406 261.992188 L 223.566406 282.671875 Z M 210.003906 282.671875 " fill-opacity="1" fill-rule="nonzero"/><path fill="#003366" d="M 254.425781 243.375 L 254.425781 262.066406 C 254.425781 265.949219 255.011719 268.707031 256.1875 270.339844 C 257.363281 271.976562 259.355469 272.792969 262.164062 272.792969 C 264.96875 272.792969 266.960938 271.976562 268.132812 270.339844 C 269.3125 268.707031 269.902344 265.949219 269.902344 262.066406 L 269.902344 243.375 L 283.453125 243.375 L 283.453125 265.355469 C 283.453125 271.894531 281.757812 276.605469 278.363281 279.496094 C 274.972656 282.378906 269.570312 283.820312 262.164062 283.820312 C 254.757812 283.820312 249.351562 282.378906 245.957031 279.496094 C 242.5625 276.605469 240.867188 271.894531 240.867188 265.355469 L 240.867188 243.375 Z M 254.425781 243.375 " fill-opacity="1" fill-rule="nonzero"/><path fill="#003366" d="M 285.359375 282.671875 L 285.359375 243.375 L 298.917969 243.375 L 298.917969 247.511719 L 299.074219 247.511719 C 302.597656 243.988281 306.347656 242.226562 310.328125 242.226562 C 313.1875 242.226562 315.875 242.816406 318.375 243.992188 C 320.878906 245.167969 322.769531 246.976562 324.046875 249.425781 C 328.023438 244.625 332.363281 242.226562 337.070312 242.226562 C 341.253906 242.226562 344.851562 243.402344 347.867188 245.753906 C 350.882812 248.097656 352.390625 251.773438 352.390625 256.78125 L 352.390625 282.671875 L 338.828125 282.671875 L 338.828125 260.460938 C 338.828125 258.367188 338.25 256.621094 337.101562 255.21875 C 335.953125 253.8125 334.234375 253.105469 331.9375 253.105469 C 329.945312 253.105469 328.421875 253.707031 327.375 254.90625 C 326.328125 256.105469 325.753906 257.550781 325.648438 259.230469 L 325.648438 282.671875 L 312.097656 282.671875 L 312.097656 260.460938 C 312.097656 258.367188 311.519531 256.621094 310.371094 255.21875 C 309.214844 253.8125 307.496094 253.105469 305.199219 253.105469 C 303.109375 253.105469 301.539062 253.757812 300.492188 255.0625 C 299.441406 256.359375 298.917969 257.90625 298.917969 259.695312 L 298.917969 282.671875 Z M 285.359375 282.671875 " fill-opacity="1" fill-rule="nonzero"/><path stroke-linecap="butt" transform="matrix(-0.496528, 0, 0, -0.496528, 374.112489, 221.753453)" fill="none" stroke-linejoin="miter" d="M -0.00159612 10.997339 L 182.374267 10.997339 " stroke="#003366" stroke-width="22" stroke-opacity="1" stroke-miterlimit="4"/><path stroke-linecap="butt" transform="matrix(0.496528, 0, 0, 0.496528, 0.91885, 205.467349)" fill="none" stroke-linejoin="miter" d="M -0.00177412 11.001074 L 182.374089 11.001074 " stroke="#003366" stroke-width="22" stroke-opacity="1" stroke-miterlimit="4"/><g clip-path="url(#3e825eb8f5)"><path stroke-linecap="butt" transform="matrix(0, 0.496528, -0.496528, 0, 11.73984, 124.63461)" fill="none" stroke-linejoin="miter" d="M 0.00424656 11.001391 L 178.124008 11.001391 " stroke="#003366" stroke-width="22" stroke-opacity="1" stroke-miterlimit="4"/></g></svg>